<?xml version="1.0" standalone="no"?>
<!DOCTYPE svg PUBLIC "-//W3C//DTD SVG 20010904//EN"
 "http://www.w3.org/TR/2001/REC-SVG-20010904/DTD/svg10.dtd">
<svg version="1.0" xmlns="http://www.w3.org/2000/svg"
 width="73.000000pt" height="73.000000pt" viewBox="0 0 73.000000 73.000000"
 preserveAspectRatio="xMidYMid meet">
<metadata>
Created by potrace 1.14, written by Peter Selinger 2001-2017
</metadata>
<g transform="translate(0.000000,73.000000) scale(0.100000,-0.100000)"
fill="#000000" stroke="none">
<path d="M314 673 c-24 -26 -44 -50 -44 -53 0 -3 40 -5 89 -5 50 0 89 4 88 9
-1 5 -14 23 -29 39 -16 17 -28 33 -28 37 0 5 -7 11 -16 14 -10 4 -30 -10 -60
-41z"/>
<path d="M100 236 l0 -234 253 1 252 2 0 28 c-1 15 2 27 6 27 4 0 4 14 -1 30
-5 19 -5 30 1 30 6 0 5 8 -1 20 -8 14 -8 20 0 20 8 0 8 6 0 20 -8 14 -8 20 0
20 8 0 8 6 0 20 -8 14 -8 20 0 20 8 0 8 6 0 20 -8 14 -8 20 0 20 8 0 8 6 0 20
-8 14 -8 20 0 20 8 0 8 6 0 20 -8 14 -8 20 0 20 8 0 8 6 0 20 -6 11 -7 20 -2
20 11 0 9 53 -3 62 -17 13 -20 10 -71 -50 -27 -32 -55 -57 -63 -54 -12 4 -86
80 -104 106 -4 7 -29 -12 -68 -53 l-61 -64 -56 62 c-32 34 -63 61 -69 61 -10
0 -13 -54 -13 -234z"/>
</g>
</svg>
